<?xml version="1.0" encoding="utf-8"?>
<!-- Generator: Adobe Illustrator 16.0.5, SVG Export Plug-In . SVG Version: 6.00 Build 0)  -->
<!DOCTYPE svg PUBLIC "-//W3C//DTD SVG 1.1//EN" "http://www.w3.org/Graphics/SVG/1.1/DTD/svg11.dtd">
<svg version="1.1" id="Layer_1" xmlns="http://www.w3.org/2000/svg" xmlns:xlink="http://www.w3.org/1999/xlink" x="0px" y="0px"
	 width="512px" height="512px" viewBox="0 0 512 512" enable-background="new 0 0 512 512" xml:space="preserve">
<g id="Layer_1_1_">
</g>
<circle fill="none" stroke="#000000" stroke-width="7" stroke-miterlimit="10" cx="256" cy="258.832" r="243.508"/>
<g>
	<g>
		<path fill="#FFFFFF" d="M255.172,376.298c62.233,0,124.469,0,186.703,0c2.196,0,4.396-0.077,6.592,0
			c2.674,0.097,3.827-1.196,3.761-3.771c-0.112-4.391-0.15-8.785-0.381-13.17c-0.058-1.086-0.542-2.271-1.165-3.182
			c-11.557-16.887-23.201-33.71-34.714-50.626c-1.479-2.175-3.074-2.95-5.688-2.948c-103.414,0.063-206.828,0.063-310.243,0.002
			c-2.576,0-4.239,0.649-5.729,2.862c-10.448,15.541-20.847,31.123-31.672,46.398c-3.38,4.771-4.684,9.63-4.379,15.212
			c0.051,0.921,0.006,1.852,0.008,2.775c0.013,6.277,0.175,6.445,6.389,6.445C128.16,376.298,191.666,376.298,255.172,376.298z
			 M254.763,299.479c51.493,0,102.984,0.002,154.479-0.002c4.685,0,4.682-0.011,4.707-4.43c0.114-18.971,0.308-37.939,0.329-56.912
			c0.047-40.269,0.004-80.537-0.004-120.806c-0.001-7.699-2.393-10.086-10.172-10.086c-99.398-0.005-198.798,0.038-298.197-0.076
			c-8.704-0.01-10.259,3.59-10.403,10.336c-0.021,0.926-0.008,1.852-0.006,2.777c0.094,58.201,0.187,116.401,0.282,174.603
			c0.009,4.581,0.016,4.592,4.506,4.592C151.776,299.48,203.27,299.479,254.763,299.479z"/>
		<path d="M255.172,376.298c-63.506,0-127.012,0-190.52,0c-6.214,0-6.375-0.168-6.389-6.446c-0.002-0.925,0.043-1.854-0.008-2.774
			c-0.305-5.582,1-10.441,4.379-15.212c10.826-15.275,21.225-30.857,31.672-46.398c1.488-2.213,3.152-2.863,5.729-2.863
			c103.416,0.062,206.829,0.062,310.243-0.002c2.613,0,4.209,0.774,5.688,2.949c11.513,16.916,23.157,33.739,34.714,50.626
			c0.623,0.909,1.107,2.097,1.165,3.181c0.229,4.386,0.269,8.779,0.381,13.17c0.066,2.574-1.087,3.867-3.761,3.771
			c-2.194-0.076-4.396,0-6.593,0C379.641,376.298,317.406,376.298,255.172,376.298z"/>
		<path d="M254.763,299.479c-51.493,0-102.987,0.002-154.479-0.004c-4.49,0-4.498-0.011-4.506-4.592
			c-0.096-58.201-0.188-116.402-0.282-174.603c-0.001-0.926-0.014-1.853,0.006-2.777c0.146-6.746,1.7-10.346,10.403-10.336
			c99.399,0.114,198.799,0.071,298.197,0.076c7.779,0,10.171,2.388,10.172,10.086c0.008,40.269,0.051,80.537,0.004,120.806
			c-0.021,18.971-0.215,37.941-0.329,56.912c-0.025,4.419-0.022,4.43-4.707,4.43C357.747,299.48,306.256,299.479,254.763,299.479z
			 M253.774,288.001c0,0.011,0,0.021,0,0.026c29.155,0,58.311,0.014,87.464-0.004c18.51-0.01,37.021-0.104,55.531-0.047
			c2.759,0.008,3.99-0.715,3.869-3.699c-0.173-4.271,0.068-8.558,0.073-12.836c0.031-47.201,0.04-94.402,0.089-141.604
			c0.01-10.015-1.352-11.472-11.309-11.472c-90.702-0.002-181.403-0.001-272.106,0.002c-7.918,0-10.098,2.083-10.146,10.039
			c-0.045,7.749,0.156,15.499,0.16,23.248c0.026,43.732,0.025,87.462,0.037,131.194c0.001,5.131,0.012,5.149,5.079,5.151
			C159.602,288.005,206.688,288.001,253.774,288.001z"/>
	</g>
	<rect x="103.483" y="115.588" fill="none" width="298.554" height="179.574"/>
	<text transform="matrix(1 0 0 1 103.4827 121.5029)" font-family="'MyriadPro-Regular'" font-size="8.3317">011000110111001001111001011100000111010001101111011000110111010101110</text>
	<text transform="matrix(1 0 0 1 103.4827 131.501)" font-family="'MyriadPro-Regular'" font-size="8.3317">010011100100110010101101110011000110111100101100011011100100111100101</text>
	<text transform="matrix(1 0 0 1 103.4827 141.499)" font-family="'MyriadPro-Regular'" font-size="8.3317">110000011101000110111101100011011101010111001001110010011001010110111</text>
	<text transform="matrix(1 0 0 1 103.4827 151.4971)" font-family="'MyriadPro-Regular'" font-size="8.3317">001100011011110010110001101110010011110010111000001110100011011110110</text>
	<text transform="matrix(1 0 0 1 103.4827 161.4951)" font-family="'MyriadPro-Regular'" font-size="8.3317">001101110101011100100111001001100101011011100110001101111001011000110</text>
	<text transform="matrix(1 0 0 1 103.4827 171.4932)" font-family="'MyriadPro-Regular'" font-size="8.3317">111001001111001011100000111010001101111011000110111010101110010011100</text>
	<text transform="matrix(1 0 0 1 103.4827 181.4912)" font-family="'MyriadPro-Regular'" font-size="8.3317">100110010101101110011000110111100101100011011100100111100101110000011</text>
	<text transform="matrix(1 0 0 1 103.4827 191.4902)" font-family="'MyriadPro-Regular'" font-size="8.3317">101000110111101100011011101010111001001110010011001010110111001100011</text>
	<text transform="matrix(1 0 0 1 103.4827 201.4883)" font-family="'MyriadPro-Regular'" font-size="8.3317">011110010110001101110010011110010111000001110100011011110110001101110</text>
	<text transform="matrix(1 0 0 1 103.4827 211.4863)" font-family="'MyriadPro-Regular'" font-size="8.3317">101011100100111001001100101011011100110001101111001011000110111001001</text>
	<text transform="matrix(1 0 0 1 103.4827 221.4844)" font-family="'MyriadPro-Regular'" font-size="8.3317">111001011100000111010001101111011000110111010101110010011100100110010</text>
	<text transform="matrix(1 0 0 1 103.4827 231.4824)" font-family="'MyriadPro-Regular'" font-size="8.3317">101101110011000110111100101100011011100100111100101110000011101000110</text>
	<text transform="matrix(1 0 0 1 103.4827 241.4795)" font-family="'MyriadPro-Regular'" font-size="8.3317">111101100011011101010111001001110010011001010110111001100011011110010</text>
	<text transform="matrix(1 0 0 1 103.4827 251.4785)" font-family="'MyriadPro-Regular'" font-size="8.3317">110001101110010011110010111000001110100011011110110001101110101011100</text>
	<text transform="matrix(1 0 0 1 103.4827 261.4766)" font-family="'MyriadPro-Regular'" font-size="8.3317">100111001001100101011011100110001101111001011000110111001001111001011</text>
	<text transform="matrix(1 0 0 1 103.4827 271.4746)" font-family="'MyriadPro-Regular'" font-size="8.3317">100000111010001101111011000110111010101110010011100100110010101101110</text>
	<text transform="matrix(1 0 0 1 103.4827 281.4727)" font-family="'MyriadPro-Regular'" font-size="8.3317">011000110111100101100011011100100111100101110000011101000110111101100</text>
	<text transform="matrix(1 0 0 1 103.4827 291.4707)" font-family="'MyriadPro-Regular'" font-size="8.3317">011011101010111001001110010011001010110111001100011011110010110001101</text>
</g>
<g>
	<path fill-rule="evenodd" clip-rule="evenodd" d="M255.992,272.852c-32.406,0-64.813,0.002-97.22-0.004
		c-7.558-0.002-9.812-2.258-9.812-9.824c-0.007-41.031-0.007-82.059,0-123.087c0.001-7.566,2.245-9.807,9.823-9.807
		c64.813-0.005,129.626-0.006,194.439,0c7.563,0,9.817,2.253,9.817,9.819c0.007,41.028,0.007,82.057,0,123.084
		c0,7.559-2.259,9.812-9.828,9.814C320.806,272.854,288.399,272.852,255.992,272.852z M320.034,144.679
		c-42.915,0-85.508,0-128.069,0c-1.927,17.125-9.97,25.188-28.491,28.706c0,18.79,0,37.604,0,56.385
		c17.573,2.329,25.771,10.519,28.656,28.596c42.565,0,85.167,0,127.752,0c2.007-17.31,11.666-26.767,28.554-28.676
		c0-19.045,0-37.828,0-56.571C331.412,171.284,321.95,161.793,320.034,144.679z"/>
	<path fill-rule="evenodd" clip-rule="evenodd" fill="#FFFFFF" d="M320.034,144.679c1.916,17.115,11.378,26.605,28.401,28.439
		c0,18.743,0,37.526,0,56.571c-16.888,1.909-26.547,11.366-28.554,28.676c-42.585,0-85.187,0-127.752,0
		c-2.886-18.078-11.083-26.267-28.656-28.596c0-18.78,0-37.595,0-56.385c18.521-3.518,26.564-11.581,28.491-28.706
		C234.527,144.679,277.119,144.679,320.034,144.679z M291.741,201.527c-0.356-11.997-3.54-23.147-10.593-32.944
		c-12.825-17.821-36.805-17.992-50.021-0.492c-14.17,18.762-14.199,47.809-0.066,66.692c13.14,17.557,37.136,17.489,50.021-0.295
		C288.162,224.715,291.357,213.561,291.741,201.527z"/>
	<path fill-rule="evenodd" clip-rule="evenodd" d="M291.741,201.527c-0.385,12.034-3.579,23.188-10.659,32.961
		c-12.885,17.784-36.881,17.852-50.021,0.295c-14.133-18.884-14.104-47.931,0.066-66.692c13.216-17.5,37.196-17.329,50.021,0.492
		C288.201,178.379,291.385,189.53,291.741,201.527z M262.975,219.413c0-17.032,0-33.425,0-50.315
		c-4.727,0.322-9.858-0.8-12.993,1.202c-5.878,3.756-10.6,9.319-16.092,14.397c3.181,3.069,5.988,5.779,8.887,8.577
		c1.966-1.826,3.756-3.493,5.742-5.34c0,10.682,0,20.953,0,31.545c-4.747,0-9.152,0-13.636,0c0,3.646,0,6.961,0,10.224
		c14.308,0,28.322,0,42.3,0c0-3.545,0-6.759,0-10.29C272.567,219.413,268.161,219.413,262.975,219.413z"/>
	<path fill-rule="evenodd" clip-rule="evenodd" fill="#FFFFFF" d="M262.975,219.413c5.187,0,9.592,0,14.209,0
		c0,3.531,0,6.745,0,10.29c-13.979,0-27.992,0-42.3,0c0-3.263,0-6.577,0-10.224c4.484,0,8.889,0,13.636,0
		c0-10.592,0-20.863,0-31.545c-1.985,1.847-3.776,3.514-5.742,5.34c-2.899-2.798-5.707-5.508-8.887-8.577
		c5.492-5.078,10.214-10.642,16.092-14.397c3.135-2.002,8.266-0.88,12.993-1.202C262.975,185.988,262.975,202.38,262.975,219.413z"
		/>
</g>
</svg>
