<?xml version="1.0" encoding="utf-8"?>
<!-- Generator: Adobe Illustrator 16.0.5, SVG Export Plug-In . SVG Version: 6.00 Build 0)  -->
<!DOCTYPE svg PUBLIC "-//W3C//DTD SVG 1.1//EN" "http://www.w3.org/Graphics/SVG/1.1/DTD/svg11.dtd">
<svg version="1.1" id="Layer_1" xmlns="http://www.w3.org/2000/svg" xmlns:xlink="http://www.w3.org/1999/xlink" x="0px" y="0px"
	 width="512px" height="512px" viewBox="0 0 512 512" enable-background="new 0 0 512 512" xml:space="preserve">
<g id="Layer_1_1_">
</g>
<g id="Layer_2">
	<circle fill="none" stroke="#000000" stroke-width="7" stroke-miterlimit="10" cx="256" cy="258.832" r="243.508"/>
	<g id="Layer_2_1_">
		
			<rect x="126.651" y="221.224" transform="matrix(-0.9169 0.399 -0.399 -0.9169 593.8768 381.1114)" fill="none" stroke="#000000" stroke-width="10" stroke-miterlimit="10" width="261.245" height="62.281"/>
		
			<rect x="117.107" y="284.942" transform="matrix(-0.9169 0.399 -0.399 -0.9169 411.3559 510.2083)" fill="none" stroke="#000000" stroke-width="7" stroke-miterlimit="10" width="70.936" height="25.952"/>
		
			<rect x="294.212" y="200.177" transform="matrix(-0.9169 0.399 -0.399 -0.9169 765.3474 259.8314)" fill="none" stroke="#000000" stroke-width="7" stroke-miterlimit="10" width="122.837" height="18.787"/>
		<polygon points="141.017,306.035 60.006,341.284 49.83,339.582 138.77,300.876 		"/>
		<path fill="none" stroke="#000000" stroke-width="10" stroke-miterlimit="10" d="M460.98,158.904
			c5.826,13.39-0.203,28.927-13.472,34.702c-13.271,5.774-28.753-0.401-34.578-13.791c-5.824-13.391,0.204-28.927,13.479-34.702
			C439.675,139.339,455.151,145.513,460.98,158.904z"/>
		
			<rect x="378.743" y="130.73" transform="matrix(0.9171 -0.3986 0.3986 0.9171 -48.891 168.2062)" fill="none" stroke="#000000" stroke-width="7" stroke-miterlimit="10" width="2.543" height="141.868"/>
		
			<rect x="296.83" y="203.646" transform="matrix(0.9167 -0.3996 0.3996 0.9167 -68.3135 138.2468)" fill="none" stroke="#000000" stroke-width="7" stroke-miterlimit="10" width="1.048" height="58.582"/>
		
			<rect x="133.475" y="241.087" transform="matrix(-0.9169 0.399 -0.399 -0.9169 527.9208 427.4356)" width="171.998" height="55.152"/>
		<path d="M77.422,366.355c1.227,2.823,0.474,9.492-3.317,11.145c-3.791,1.649-9.187-2.35-10.414-5.168
			c-1.226-2.816-3.384-16.177,0.407-17.827C67.89,352.855,76.197,363.54,77.422,366.355z"/>
	</g>
</g>
</svg>
