<?xml version="1.0" standalone="no"?>
<!DOCTYPE svg PUBLIC "-//W3C//DTD SVG 20010904//EN"
 "http://www.w3.org/TR/2001/REC-SVG-20010904/DTD/svg10.dtd">
<svg version="1.0" xmlns="http://www.w3.org/2000/svg"
 width="465.000000pt" height="465.000000pt" viewBox="0 0 465.000000 465.000000"
 preserveAspectRatio="xMidYMid meet">
<metadata>
Created by potrace 1.11, written by Peter Selinger 2001-2013
</metadata>
<g transform="translate(0.000000,465.000000) scale(0.100000,-0.100000)"
fill="#000000" stroke="none">
<path d="M318 3751 c-124 -40 -217 -121 -276 -240 -34 -69 -37 -81 -39 -177
-2 -80 2 -115 17 -160 11 -31 24 -62 29 -68 5 -6 203 -364 441 -796 238 -432
478 -866 533 -965 56 -99 119 -214 141 -255 94 -177 255 -271 446 -257 87 6
143 25 220 77 67 45 102 88 239 300 225 347 246 380 252 380 4 0 35 -45 70
-100 35 -55 88 -138 117 -183 29 -45 83 -131 121 -192 103 -164 173 -226 300
-265 178 -56 383 11 493 160 21 28 176 305 425 760 16 30 187 339 378 685 192
347 359 650 371 675 31 64 44 134 38 218 -20 322 -358 516 -652 375 -70 -34
-168 -130 -202 -198 -13 -28 -41 -79 -61 -115 -37 -67 -75 -136 -130 -237 -18
-32 -47 -84 -65 -116 -19 -32 -34 -60 -34 -62 0 -2 -17 -34 -39 -72 -51 -92
-76 -137 -194 -351 -55 -100 -101 -181 -102 -180 -7 8 -141 409 -171 510 -39
136 -64 189 -128 275 -127 169 -324 265 -541 264 -185 0 -338 -64 -471 -196
-100 -98 -148 -182 -184 -319 -15 -55 -60 -201 -100 -323 l-74 -221 -18 28
c-14 25 -509 922 -601 1090 -61 112 -116 171 -207 219 -101 53 -236 66 -342
32z"/>
</g>
</svg>
