<svg id="Layer_1" data-name="Layer 1" xmlns="http://www.w3.org/2000/svg" viewBox="0 0 658.84 274.91"><defs><style>.cls-1{fill:none;stroke:#ef4136;stroke-miterlimit:10;stroke-width:26px;}.cls-2{fill:#ef4136;}</style></defs><rect class="cls-1" x="13" y="13" width="632.84" height="248.91" rx="29.15"/><path class="cls-2" d="M142.42,337.48H174V450.56h55.51V477H142.42Z" transform="translate(-70.58 -262.54)"/><path class="cls-2" d="M279.74,337.48V477H248.2V337.48Z" transform="translate(-70.58 -262.54)"/><path class="cls-2" d="M340.11,477,295.35,337.48H329.9l16.88,59.07c4.88,16.59,9.12,32.38,12.6,49.78h.44c3.52-16.75,8-33.32,12.78-49.28l17.71-59.57h33.55L377,477Z" transform="translate(-70.58 -262.54)"/><path class="cls-2" d="M521.72,418H470.38v33.18h57.39V477H438.84V337.48h85.95v25.84H470.38v29.07h51.34Z" transform="translate(-70.58 -262.54)"/><circle class="cls-2" cx="554.86" cy="137.46" r="45.65"/></svg>